<?xml version="1.0" encoding="UTF-8"?>
<!DOCTYPE svg PUBLIC "-//W3C//DTD SVG 1.1//EN" "http://www.w3.org/Graphics/SVG/1.1/DTD/svg11.dtd">
<svg xmlns="http://www.w3.org/2000/svg" version="1.1" width="1081px" height="1081px" style="shape-rendering:geometricPrecision; text-rendering:geometricPrecision; image-rendering:optimizeQuality; fill-rule:evenodd; clip-rule:evenodd" xmlns:xlink="http://www.w3.org/1999/xlink">
<g><path style="opacity:0.993" fill="#fefefe" d="M 847.5,17.5 C 862.723,16.7939 877.723,18.2939 892.5,22C 949.912,47.9973 971.079,91.8307 956,153.5C 931.97,208.605 890.137,230.771 830.5,220C 794.455,208.955 770.622,185.455 759,149.5C 747.538,103.217 760.371,65.3836 797.5,36C 812.76,25.75 829.426,19.5833 847.5,17.5 Z"/></g>
<g><path style="opacity:0.993" fill="#fefefe" d="M -0.5,424.5 C -0.5,412.833 -0.5,401.167 -0.5,389.5C 7.24693,316.822 40.2469,258.656 98.5,215C 148.119,181.607 202.619,169.107 262,177.5C 263.811,176.922 265.645,176.422 267.5,176C 296.646,154.926 326.312,134.592 356.5,115C 366.784,109.661 376.284,110.828 385,118.5C 390.986,127.644 391.986,137.311 388,147.5C 370,172.167 352,196.833 334,221.5C 259.698,345.928 186.531,471.095 114.5,597C 265.166,597.5 415.833,597.667 566.5,597.5C 564.711,675.252 532.711,737.085 470.5,783C 460.767,789.728 450.767,796.062 440.5,802C 464.341,866.53 487.507,931.364 510,996.5C 515.335,1016.02 507.835,1026.69 487.5,1028.5C 480.378,1028.69 474.544,1026.02 470,1020.5C 467.287,1015.7 464.954,1010.7 463,1005.5C 457.043,985.292 449.709,965.625 441,946.5C 440.052,944.43 438.552,942.93 436.5,942C 369.833,941.333 303.167,941.333 236.5,942C 235.213,943.41 234.046,944.91 233,946.5C 225.985,969.214 217.985,991.547 209,1013.5C 199.496,1029.8 186.663,1032.97 170.5,1023C 163.523,1016.07 161.69,1007.9 165,998.5C 169.753,981.658 175.086,964.991 181,948.5C 199.28,899.785 217.113,850.951 234.5,802C 216.47,790.987 199.136,778.987 182.5,766C 134.696,721.053 110.696,665.72 110.5,600C 44.5976,560.079 7.59763,501.579 -0.5,424.5 Z M 279.5,818.5 C 306.967,823.693 334.633,825.193 362.5,823C 374.206,821.732 385.872,820.232 397.5,818.5C 405.092,843.61 413.092,868.61 421.5,893.5C 364.836,894.667 308.17,894.833 251.5,894C 261.13,868.942 270.464,843.775 279.5,818.5 Z"/></g>
<g><path style="opacity:0.993" fill="#fefefe" d="M 1080.5,392.5 C 1080.5,420.5 1080.5,448.5 1080.5,476.5C 1079.67,512.664 1079.17,548.998 1079,585.5C 1070.25,610.222 1052.75,621.056 1026.5,618C 1006.28,613.783 994.116,601.616 990,581.5C 988.418,559.7 987.585,537.866 987.5,516C 988.397,484.169 988.564,452.336 988,420.5C 978.675,413.669 969.009,407.336 959,401.5C 958.177,600.838 958.344,800.172 959.5,999.5C 959.274,1010.28 958.107,1020.95 956,1031.5C 944.077,1053.04 925.911,1061.54 901.5,1057C 886.771,1053.59 876.271,1045.09 870,1031.5C 868.011,1013.9 867.011,996.23 867,978.5C 866.307,880.498 866.473,782.498 867.5,684.5C 858.419,684.829 849.419,684.162 840.5,682.5C 839.833,682.833 839.167,683.167 838.5,683.5C 824.172,719.983 810.339,756.65 797,793.5C 795.882,819.811 795.382,846.144 795.5,872.5C 796.092,922.167 796.258,971.834 796,1021.5C 791.538,1047.29 776.205,1061.29 750,1063.5C 720.277,1060.06 704.61,1043.39 703,1013.5C 702.107,936.492 702.441,859.492 704,782.5C 704.932,772.176 707.265,762.176 711,752.5C 729.178,709.965 746.178,666.965 762,623.5C 761.545,612.762 760.212,602.095 758,591.5C 757.667,540.833 757.333,490.167 757,439.5C 745.554,450.946 734.054,462.446 722.5,474C 718.452,477.716 714.118,481.05 709.5,484C 661.898,507.2 612.898,526.866 562.5,543C 531.133,543.8 513.466,528.633 509.5,497.5C 510.392,481.05 517.559,468.05 531,458.5C 530.968,445.231 528.135,432.564 522.5,420.5C 525.5,417.167 528.5,413.833 531.5,410.5C 521.912,377.48 513.578,344.146 506.5,310.5C 503.125,309.097 499.791,307.597 496.5,306C 494.288,303.079 492.455,299.912 491,296.5C 483.602,274.674 478.435,252.341 475.5,229.5C 471.898,229.322 471.898,228.322 475.5,226.5C 485.975,244.45 495.141,263.117 503,282.5C 506.842,287.709 509.175,287.376 510,281.5C 510.917,262.091 510.084,242.758 507.5,223.5C 507.667,222.167 507.833,220.833 508,219.5C 510.043,221.208 511.71,223.208 513,225.5C 519.558,246.9 525.725,268.4 531.5,290C 527.911,293.517 525.911,297.85 525.5,303C 530.947,332.569 536.78,362.069 543,391.5C 544.739,400.915 549.406,408.582 557,414.5C 561.043,422.337 563.376,430.67 564,439.5C 564.519,440.516 565.353,441.182 566.5,441.5C 597.895,431.535 628.562,419.702 658.5,406C 703.164,359.336 748.498,313.336 794.5,268C 825.613,243.704 859.613,238.704 896.5,253C 911.734,259.617 926.401,267.283 940.5,276C 983.167,304.667 1025.83,333.333 1068.5,362C 1076.16,370.829 1080.16,380.995 1080.5,392.5 Z"/></g>
<g><path style="opacity:0.975" fill="#fdfdfd" d="M 274.5,373.5 C 285.361,371.402 291.028,375.736 291.5,386.5C 292.013,394.977 288.346,400.81 280.5,404C 272.701,411.04 268.534,419.873 268,430.5C 267.13,440.885 267.464,451.218 269,461.5C 275.236,476.635 280.902,491.969 286,507.5C 289.492,537.025 280.992,562.525 260.5,584C 248.738,590.638 240.738,587.638 236.5,575C 236.98,570.944 238.147,567.111 240,563.5C 255.316,547.229 260.649,528.229 256,506.5C 248.656,492.48 242.99,477.813 239,462.5C 234.323,439.308 237.656,417.308 249,396.5C 255.527,386.465 264.027,378.798 274.5,373.5 Z"/></g>
<g><path style="opacity:0.975" fill="#fdfdfd" d="M 349.5,373.5 C 358.733,373.273 364.399,377.606 366.5,386.5C 364.861,391.112 362.694,395.446 360,399.5C 354.633,404.532 349.633,409.865 345,415.5C 342.739,419.95 341.072,424.617 340,429.5C 338.961,440.615 339.628,451.615 342,462.5C 347.063,475.624 352.396,488.624 358,501.5C 361.547,526.353 357.214,549.686 345,571.5C 339.049,580.294 330.883,585.627 320.5,587.5C 311.758,585.697 308.258,580.363 310,571.5C 315.634,561.853 321.301,552.187 327,542.5C 334.627,521.225 331.627,501.559 318,483.5C 311.948,464.273 309.948,444.607 312,424.5C 314.833,406.663 322.999,391.83 336.5,380C 340.657,377.255 344.99,375.088 349.5,373.5 Z"/></g>
<g><path style="opacity:0.976" fill="#fdfdfd" d="M 424.5,372.5 C 434.216,373.203 438.883,378.536 438.5,388.5C 437.974,391.272 437.141,393.938 436,396.5C 420.524,407.447 412.358,422.447 411.5,441.5C 412.542,450.002 414.375,458.336 417,466.5C 425.843,484.196 431.343,502.862 433.5,522.5C 432.346,542.466 425.846,560.466 414,576.5C 410.419,580.752 406.252,584.252 401.5,587C 388.808,588.639 382.975,583.139 384,570.5C 384.667,568.5 385.333,566.5 386,564.5C 391.249,557.004 396.249,549.337 401,541.5C 406.052,530.754 406.719,519.754 403,508.5C 396.78,494.727 391.113,480.727 386,466.5C 379.842,440.118 383.842,415.451 398,392.5C 404.525,382.517 413.358,375.85 424.5,372.5 Z"/></g>
</svg>
