<?xml version="1.0" encoding="UTF-8"?>
<!DOCTYPE svg PUBLIC "-//W3C//DTD SVG 1.1//EN" "http://www.w3.org/Graphics/SVG/1.1/DTD/svg11.dtd">
<svg xmlns="http://www.w3.org/2000/svg" version="1.1" width="1081px" height="1081px" style="shape-rendering:geometricPrecision; text-rendering:geometricPrecision; image-rendering:optimizeQuality; fill-rule:evenodd; clip-rule:evenodd" xmlns:xlink="http://www.w3.org/1999/xlink">
<g><path style="opacity:0.98" fill="#fefefe" d="M 1080.5,475.5 C 1080.5,479.167 1080.5,482.833 1080.5,486.5C 1080.52,497.517 1077.69,507.85 1072,517.5C 1064.5,524.662 1056.17,530.662 1047,535.5C 1046.67,694.833 1046.33,854.167 1046,1013.5C 1045.41,1021.42 1041.25,1026.25 1033.5,1028C 1020.37,1029.11 1007.21,1029.61 994,1029.5C 982.833,1029.33 971.667,1029.17 960.5,1029C 953.607,1027.22 947.607,1023.89 942.5,1019C 924.936,1001.19 907.603,983.192 890.5,965C 887.772,962.608 884.772,960.608 881.5,959C 654.167,958.333 426.833,958.333 199.5,959C 196.567,960.271 193.901,961.938 191.5,964C 172.471,982.695 153.805,1001.69 135.5,1021C 132.003,1023.58 128.336,1025.92 124.5,1028C 100.875,1029.62 77.2085,1029.95 53.5,1029C 42.962,1029.34 36.462,1024.5 34,1014.5C 33.6667,854.833 33.3333,695.167 33,535.5C 14.52,528.162 3.35337,514.829 -0.5,495.5C -0.5,489.833 -0.5,484.167 -0.5,478.5C 5.98862,451.857 22.9886,437.023 50.5,434C 73.8537,433.42 97.1871,433.42 120.5,434C 109.672,417.868 104.172,400.034 104,380.5C 103.067,354.802 103.4,329.135 105,303.5C 109.982,296.607 116.815,293.774 125.5,295C 226.167,294.667 326.833,294.333 427.5,294C 417.333,282.5 406.5,271.667 395,261.5C 390.346,256.862 386.679,251.529 384,245.5C 382.858,233.635 388.191,226.635 400,224.5C 405.08,225.457 409.58,227.623 413.5,231C 424.197,241.363 434.53,252.029 444.5,263C 447.667,265.5 450.833,268 454,270.5C 454.667,237.167 454.667,203.833 454,170.5C 454.596,137.177 440.763,112.01 412.5,95C 379.726,79.3107 348.726,82.3107 319.5,104C 310.583,112 303.75,121.5 299,132.5C 293.224,141.976 285.057,145.142 274.5,142C 267.272,135.591 265.106,127.758 268,118.5C 289.702,76.7101 324.202,54.0434 371.5,50.5C 427.544,53.3922 464.377,81.3922 482,134.5C 483.373,141.446 484.373,148.446 485,155.5C 487.77,202.472 488.27,249.472 486.5,296.5C 506.146,293.06 525.812,292.893 545.5,296C 548.548,296.606 551.048,298.106 553,300.5C 555.133,304.232 556.466,308.232 557,312.5C 557.667,335.833 557.667,359.167 557,382.5C 555.438,401.021 549.605,418.021 539.5,433.5C 557.488,434.5 575.488,434.833 593.5,434.5C 593.333,383.499 593.5,332.499 594,281.5C 595.549,276.958 598.716,274.125 603.5,273C 612.098,271.624 620.765,271.124 629.5,271.5C 629.019,246.744 629.519,222.077 631,197.5C 634.297,194.433 638.131,192.267 642.5,191C 655.167,190.333 667.833,190.333 680.5,191C 693.7,192.887 698.867,200.387 696,213.5C 693.673,218.423 689.84,221.59 684.5,223C 676.887,224.262 669.22,224.762 661.5,224.5C 661.5,240.167 661.5,255.833 661.5,271.5C 669.553,271.225 677.553,271.725 685.5,273C 690.598,274.433 694.098,277.6 696,282.5C 696.5,333.166 696.667,383.832 696.5,434.5C 712.17,434.667 727.837,434.5 743.5,434C 723.94,393.232 733.273,360.898 771.5,337C 776.624,334.438 781.957,332.438 787.5,331C 805.073,328.462 821.74,331.128 837.5,339C 843.759,344.048 849.926,349.214 856,354.5C 857.031,351.461 858.865,348.961 861.5,347C 892.8,324.083 923.8,324.417 954.5,348C 972.492,365.438 979.325,386.604 975,411.5C 972.816,419.189 970.65,426.856 968.5,434.5C 992.883,432.772 1017.22,433.272 1041.5,436C 1061.53,442.532 1074.53,455.699 1080.5,475.5 Z M 625.5,303.5 C 637.833,303.5 650.167,303.5 662.5,303.5C 662.5,347.167 662.5,390.833 662.5,434.5C 650.167,434.5 637.833,434.5 625.5,434.5C 625.5,390.833 625.5,347.167 625.5,303.5 Z M 136.5,328.5 C 265.167,328.5 393.833,328.5 522.5,328.5C 523.563,345.818 523.729,363.151 523,380.5C 521.514,409.637 506.681,427.471 478.5,434C 379.5,434.667 280.5,434.667 181.5,434C 155.624,428.118 140.79,411.952 137,385.5C 136.5,366.503 136.333,347.503 136.5,328.5 Z M 796.5,363.5 C 817.835,361.688 831.335,371.022 837,391.5C 839.084,417.917 826.917,432.251 800.5,434.5C 779.306,431.643 768.306,419.477 767.5,398C 767.127,386.08 771.793,376.746 781.5,370C 786.367,367.226 791.367,365.059 796.5,363.5 Z M 899.5,363.5 C 925.83,361.008 940.163,372.841 942.5,399C 941.563,420.77 930.23,432.604 908.5,434.5C 881.658,431.775 869.825,417.108 873,390.5C 876.718,376.284 885.551,367.284 899.5,363.5 Z M 44.5,468.5 C 374.834,468.333 705.167,468.5 1035.5,469C 1043.52,471.531 1047.52,477.031 1047.5,485.5C 1047.02,496.481 1041.36,502.981 1030.5,505C 703.5,505.667 376.5,505.667 49.5,505C 34.6267,501.428 29.46,492.261 34,477.5C 36.0523,472.736 39.5523,469.736 44.5,468.5 Z M 67.5,537.5 C 382.5,537.5 697.5,537.5 1012.5,537.5C 1012.5,666.833 1012.5,796.167 1012.5,925.5C 697.5,925.5 382.5,925.5 67.5,925.5C 67.5,796.167 67.5,666.833 67.5,537.5 Z M 136.5,608.5 C 265.167,608.5 393.833,608.5 522.5,608.5C 522.5,644.167 522.5,679.833 522.5,715.5C 393.833,715.5 265.167,715.5 136.5,715.5C 136.5,679.833 136.5,644.167 136.5,608.5 Z M 625.5,608.5 C 637.833,608.5 650.167,608.5 662.5,608.5C 662.5,620.5 662.5,632.5 662.5,644.5C 650.167,644.5 637.833,644.5 625.5,644.5C 625.5,632.5 625.5,620.5 625.5,608.5 Z M 696.5,608.5 C 755.167,608.5 813.833,608.5 872.5,608.5C 872.5,620.5 872.5,632.5 872.5,644.5C 813.833,644.5 755.167,644.5 696.5,644.5C 696.5,632.5 696.5,620.5 696.5,608.5 Z M 907.5,608.5 C 919.5,608.5 931.5,608.5 943.5,608.5C 943.5,620.5 943.5,632.5 943.5,644.5C 931.5,644.5 919.5,644.5 907.5,644.5C 907.5,632.5 907.5,620.5 907.5,608.5 Z M 625.5,679.5 C 637.833,679.5 650.167,679.5 662.5,679.5C 662.5,714.5 662.5,749.5 662.5,784.5C 650.167,784.5 637.833,784.5 625.5,784.5C 625.5,749.5 625.5,714.5 625.5,679.5 Z M 696.5,679.5 C 755.167,679.5 813.833,679.5 872.5,679.5C 872.5,714.5 872.5,749.5 872.5,784.5C 813.833,784.5 755.167,784.5 696.5,784.5C 696.5,749.5 696.5,714.5 696.5,679.5 Z M 907.5,679.5 C 919.5,679.5 931.5,679.5 943.5,679.5C 943.5,714.5 943.5,749.5 943.5,784.5C 931.5,784.5 919.5,784.5 907.5,784.5C 907.5,749.5 907.5,714.5 907.5,679.5 Z M 136.5,747.5 C 265.167,747.5 393.833,747.5 522.5,747.5C 522.5,783.5 522.5,819.5 522.5,855.5C 393.833,855.5 265.167,855.5 136.5,855.5C 136.5,819.5 136.5,783.5 136.5,747.5 Z M 625.5,818.5 C 637.833,818.5 650.167,818.5 662.5,818.5C 662.5,830.833 662.5,843.167 662.5,855.5C 650.167,855.5 637.833,855.5 625.5,855.5C 625.5,843.167 625.5,830.833 625.5,818.5 Z M 696.5,818.5 C 755.167,818.5 813.833,818.5 872.5,818.5C 872.5,830.833 872.5,843.167 872.5,855.5C 813.833,855.5 755.167,855.5 696.5,855.5C 696.5,843.167 696.5,830.833 696.5,818.5 Z M 907.5,818.5 C 919.5,818.5 931.5,818.5 943.5,818.5C 943.5,830.833 943.5,843.167 943.5,855.5C 931.5,855.5 919.5,855.5 907.5,855.5C 907.5,843.167 907.5,830.833 907.5,818.5 Z M 67.5,958.5 C 94.5021,958.333 121.502,958.5 148.5,959C 138.128,972.372 126.128,984.039 112.5,994C 97.5037,994.5 82.5037,994.667 67.5,994.5C 67.5,982.5 67.5,970.5 67.5,958.5 Z M 931.5,959.5 C 958.328,958.502 985.328,958.169 1012.5,958.5C 1012.5,970.5 1012.5,982.5 1012.5,994.5C 997.496,994.667 982.496,994.5 967.5,994C 954.009,984.008 942.009,972.508 931.5,959.5 Z"/></g>
<g><path style="opacity:0.978" fill="#fefefe" d="M 124.5,573.5 C 260.834,573.333 397.167,573.5 533.5,574C 547.944,573.452 555.777,580.285 557,594.5C 557.667,687.167 557.667,779.833 557,872.5C 555.413,882.418 549.58,887.918 539.5,889C 399.167,889.667 258.833,889.667 118.5,889C 111.901,888.054 107.401,884.554 105,878.5C 104.333,780.833 104.333,683.167 105,585.5C 106.089,581.814 108.255,578.981 111.5,577C 115.848,575.417 120.182,574.251 124.5,573.5 Z M 136.5,608.5 C 136.5,644.167 136.5,679.833 136.5,715.5C 265.167,715.5 393.833,715.5 522.5,715.5C 522.5,679.833 522.5,644.167 522.5,608.5C 393.833,608.5 265.167,608.5 136.5,608.5 Z M 136.5,747.5 C 136.5,783.5 136.5,819.5 136.5,855.5C 265.167,855.5 393.833,855.5 522.5,855.5C 522.5,819.5 522.5,783.5 522.5,747.5C 393.833,747.5 265.167,747.5 136.5,747.5 Z"/></g>
<g><path style="opacity:0.981" fill="#fefefe" d="M 615.5,573.5 C 728.834,573.333 842.167,573.5 955.5,574C 964.325,573.491 970.825,576.991 975,584.5C 975.333,586.5 975.667,588.5 976,590.5C 976.667,684.5 976.667,778.5 976,872.5C 975.91,882.184 971.077,887.684 961.5,889C 843.833,889.667 726.167,889.667 608.5,889C 600.746,887.577 595.912,883.077 594,875.5C 593.333,779.167 593.333,682.833 594,586.5C 595.061,583.438 596.894,580.938 599.5,579C 604.663,576.231 609.996,574.398 615.5,573.5 Z M 625.5,608.5 C 625.5,620.5 625.5,632.5 625.5,644.5C 637.833,644.5 650.167,644.5 662.5,644.5C 662.5,632.5 662.5,620.5 662.5,608.5C 650.167,608.5 637.833,608.5 625.5,608.5 Z M 696.5,608.5 C 696.5,620.5 696.5,632.5 696.5,644.5C 755.167,644.5 813.833,644.5 872.5,644.5C 872.5,632.5 872.5,620.5 872.5,608.5C 813.833,608.5 755.167,608.5 696.5,608.5 Z M 907.5,608.5 C 907.5,620.5 907.5,632.5 907.5,644.5C 919.5,644.5 931.5,644.5 943.5,644.5C 943.5,632.5 943.5,620.5 943.5,608.5C 931.5,608.5 919.5,608.5 907.5,608.5 Z M 625.5,679.5 C 625.5,714.5 625.5,749.5 625.5,784.5C 637.833,784.5 650.167,784.5 662.5,784.5C 662.5,749.5 662.5,714.5 662.5,679.5C 650.167,679.5 637.833,679.5 625.5,679.5 Z M 696.5,679.5 C 696.5,714.5 696.5,749.5 696.5,784.5C 755.167,784.5 813.833,784.5 872.5,784.5C 872.5,749.5 872.5,714.5 872.5,679.5C 813.833,679.5 755.167,679.5 696.5,679.5 Z M 907.5,679.5 C 907.5,714.5 907.5,749.5 907.5,784.5C 919.5,784.5 931.5,784.5 943.5,784.5C 943.5,749.5 943.5,714.5 943.5,679.5C 931.5,679.5 919.5,679.5 907.5,679.5 Z M 625.5,818.5 C 625.5,830.833 625.5,843.167 625.5,855.5C 637.833,855.5 650.167,855.5 662.5,855.5C 662.5,843.167 662.5,830.833 662.5,818.5C 650.167,818.5 637.833,818.5 625.5,818.5 Z M 696.5,818.5 C 696.5,830.833 696.5,843.167 696.5,855.5C 755.167,855.5 813.833,855.5 872.5,855.5C 872.5,843.167 872.5,830.833 872.5,818.5C 813.833,818.5 755.167,818.5 696.5,818.5 Z M 907.5,818.5 C 907.5,830.833 907.5,843.167 907.5,855.5C 919.5,855.5 931.5,855.5 943.5,855.5C 943.5,843.167 943.5,830.833 943.5,818.5C 931.5,818.5 919.5,818.5 907.5,818.5 Z"/></g>
<g><path style="opacity:0.975" fill="#fefefe" d="M 189.5,644.5 C 213.502,644.333 237.502,644.5 261.5,645C 275.16,648.82 279.327,657.32 274,670.5C 269.227,676.209 263.06,679.042 255.5,679C 232.458,679.947 209.458,679.614 186.5,678C 172.967,672.652 169.801,663.819 177,651.5C 180.739,648.219 184.905,645.885 189.5,644.5 Z"/></g>
<g><path style="opacity:0.974" fill="#fdfdfd" d="M 398.5,644.5 C 423.877,644.047 449.21,644.547 474.5,646C 484.172,649.507 488.005,656.34 486,666.5C 482.577,674.57 476.41,678.737 467.5,679C 443.791,679.949 420.125,679.616 396.5,678C 384.254,673.016 380.754,664.516 386,652.5C 389.378,648.406 393.545,645.739 398.5,644.5 Z"/></g>
<g><path style="opacity:0.97" fill="#fdfdfd" d="M 410.5,783.5 C 424.504,783.333 438.504,783.5 452.5,784C 459.896,784.151 467.229,784.818 474.5,786C 485.933,791.372 489.099,799.872 484,811.5C 481.635,814.869 478.468,817.036 474.5,818C 448.167,818.667 421.833,818.667 395.5,818C 385.558,814.29 381.724,807.124 384,796.5C 385.5,792.333 388.333,789.5 392.5,788C 398.52,786.036 404.52,784.536 410.5,783.5 Z"/></g>
<g><path style="opacity:0.974" fill="#fefefe" d="M 189.5,784.5 C 213.836,784.333 238.169,784.5 262.5,785C 271.076,787.628 275.742,793.462 276.5,802.5C 275.961,810.437 271.961,815.603 264.5,818C 238.5,818.667 212.5,818.667 186.5,818C 174.407,813.057 170.907,804.557 176,792.5C 179.696,788.268 184.196,785.602 189.5,784.5 Z"/></g>
</svg>
