<?xml version="1.0" encoding="UTF-8"?>
<!DOCTYPE svg PUBLIC "-//W3C//DTD SVG 1.1//EN" "http://www.w3.org/Graphics/SVG/1.1/DTD/svg11.dtd">
<svg xmlns="http://www.w3.org/2000/svg" version="1.1" width="1081px" height="1081px" style="shape-rendering:geometricPrecision; text-rendering:geometricPrecision; image-rendering:optimizeQuality; fill-rule:evenodd; clip-rule:evenodd" xmlns:xlink="http://www.w3.org/1999/xlink">
<g><path style="opacity:0.996" fill="#fefefe" d="M 1080.5,398.5 C 1080.5,412.5 1080.5,426.5 1080.5,440.5C 1072.27,515.792 1040.94,579.626 986.5,632C 964.974,649.77 940.974,663.437 914.5,673C 899.037,678.634 886.203,687.8 876,700.5C 868.716,713.283 863.716,726.95 861,741.5C 855.449,767.566 853.449,793.899 855,820.5C 857.974,844.152 860.807,867.818 863.5,891.5C 863.317,914.049 852.984,929.883 832.5,939C 756.985,970.505 678.318,988.505 596.5,993C 504.407,999.096 413.74,990.429 324.5,967C 296.205,960.239 269.539,949.572 244.5,935C 231.212,925.924 223.378,913.424 221,897.5C 220.333,887.833 220.333,878.167 221,868.5C 225.732,837.648 228.898,806.648 230.5,775.5C 230.54,763.439 229.707,751.439 228,739.5C 224.59,721.115 220.923,702.782 217,684.5C 214.825,661.978 224.325,646.478 245.5,638C 389.573,588.774 536.239,579.107 685.5,609C 698.623,611.864 711.623,615.197 724.5,619C 748.167,627.5 771.833,636 795.5,644.5C 795.013,639.774 793.513,635.107 791,630.5C 780.571,614.078 766.405,601.911 748.5,594C 722.719,583.554 696.053,576.221 668.5,572C 555.58,552.595 442.247,549.595 328.5,563C 295.776,567.431 264.109,575.764 233.5,588C 219.398,594.288 207.231,603.122 197,614.5C 189.863,627.776 183.529,641.443 178,655.5C 173.278,662.531 166.612,666.198 158,666.5C 143.953,664.894 131.12,660.06 119.5,652C 98.873,639.046 81.0397,622.879 66,603.5C 3.60385,521.182 -13.7295,430.182 14,330.5C 45.8538,250.655 103.687,200.821 187.5,181C 197.434,179.175 207.434,177.842 217.5,177C 248.825,175.964 280.158,175.298 311.5,175C 328.647,173.286 344.313,167.619 358.5,158C 374.091,145.747 389.091,132.747 403.5,119C 425.577,103.859 449.91,94.1921 476.5,90C 532.058,81.6022 586.392,86.6022 639.5,105C 692.02,125.189 727.187,162.022 745,215.5C 757.507,255.608 760.673,296.274 754.5,337.5C 763.04,329.454 769.873,320.12 775,309.5C 786.149,286.753 790.482,262.753 788,237.5C 784.721,220.547 782.387,203.547 781,186.5C 792.967,181.506 805.467,178.672 818.5,178C 913.487,172.58 987.987,208.746 1042,286.5C 1063.73,320.846 1076.56,358.18 1080.5,398.5 Z M 109.5,264.5 C 110.124,264.917 110.457,265.584 110.5,266.5C 106.719,298.422 105.553,330.422 107,362.5C 109.948,405.003 121.948,444.669 143,481.5C 155.101,499.267 169.601,514.767 186.5,528C 194.049,532.878 202.049,536.878 210.5,540C 200.998,545.919 191.331,551.586 181.5,557C 168.556,563.944 159.056,574.111 153,587.5C 149.425,591.653 146.091,595.986 143,600.5C 107.635,572.818 83.9682,537.151 72,493.5C 52.9608,411.882 65.4608,335.549 109.5,264.5 Z M 499.5,866.5 C 586.437,863.533 672.437,871.033 757.5,889C 766.48,891.548 775.147,894.882 783.5,899C 793.131,904.151 793.798,910.151 785.5,917C 773.877,923.319 761.544,927.652 748.5,930C 607.002,957.989 465.669,957.322 324.5,928C 313.055,925.411 302.388,921.078 292.5,915C 289.313,912.214 288.479,909.047 290,905.5C 296.297,899.931 303.464,895.765 311.5,893C 350.086,881.902 389.42,874.902 429.5,872C 452.963,869.83 476.297,867.996 499.5,866.5 Z"/></g>
</svg>
