<?xml version="1.0" encoding="UTF-8"?>
<!DOCTYPE svg PUBLIC "-//W3C//DTD SVG 1.1//EN" "http://www.w3.org/Graphics/SVG/1.1/DTD/svg11.dtd">
<svg xmlns="http://www.w3.org/2000/svg" version="1.1" width="1081px" height="1081px" style="shape-rendering:geometricPrecision; text-rendering:geometricPrecision; image-rendering:optimizeQuality; fill-rule:evenodd; clip-rule:evenodd" xmlns:xlink="http://www.w3.org/1999/xlink">
<g><path style="opacity:0.985" fill="#fefefe" d="M 1080.5,9.5 C 1080.5,33.8333 1080.5,58.1667 1080.5,82.5C 1002.83,82.5 925.167,82.5 847.5,82.5C 847.833,96.8488 847.499,111.182 846.5,125.5C 833.893,119.113 821.393,119.113 809,125.5C 808.5,111.171 808.333,96.8372 808.5,82.5C 773.5,82.5 738.5,82.5 703.5,82.5C 703.667,96.8372 703.5,111.171 703,125.5C 696.173,123.21 689.173,121.543 682,120.5C 675.979,121.013 670.312,122.68 665,125.5C 664.5,111.171 664.333,96.8372 664.5,82.5C 629.5,82.5 594.5,82.5 559.5,82.5C 559.667,96.8372 559.5,111.171 559,125.5C 546.434,119.153 533.934,119.153 521.5,125.5C 520.501,111.182 520.167,96.8488 520.5,82.5C 485.167,82.5 449.833,82.5 414.5,82.5C 414.833,96.8488 414.499,111.182 413.5,125.5C 401.608,118.989 389.775,118.989 378,125.5C 377.5,111.171 377.333,96.8372 377.5,82.5C 341.833,82.5 306.167,82.5 270.5,82.5C 270.667,96.8372 270.5,111.171 270,125.5C 257.961,118.973 245.961,118.973 234,125.5C 233.5,111.171 233.333,96.8372 233.5,82.5C 155.833,82.5 78.1667,82.5 0.5,82.5C 0.5,58.1667 0.5,33.8333 0.5,9.5C 360.5,9.5 720.5,9.5 1080.5,9.5 Z"/></g>
<g><path style="opacity:0.982" fill="#fdfdfd" d="M 250.5,155.5 C 270.562,162.198 289.229,171.531 306.5,183.5C 303.273,190.955 299.773,198.288 296,205.5C 279.264,223.742 258.764,229.909 234.5,224C 214.524,216.522 202.19,202.355 197.5,181.5C 215.07,172.548 232.737,163.881 250.5,155.5 Z"/></g>
<g><path style="opacity:0.972" fill="#fdfdfd" d="M 534.5,156.5 C 538.582,156.344 542.582,156.844 546.5,158C 561.801,165.901 577.301,173.401 593,180.5C 591.823,194.018 585.99,205.185 575.5,214C 572.942,215.626 570.275,216.626 567.5,217C 558.167,208.333 548.833,199.667 539.5,191C 529.324,184.079 519.324,176.912 509.5,169.5C 518.613,166.445 526.947,162.112 534.5,156.5 Z"/></g>
<g><path style="opacity:0.969" fill="#fdfdfd" d="M 680.5,156.5 C 685.08,156.113 689.414,156.947 693.5,159C 707.399,167.366 721.899,174.533 737,180.5C 735.8,194.065 729.967,205.232 719.5,214C 716.942,215.626 714.275,216.626 711.5,217C 701.5,207.667 691.5,198.333 681.5,189C 673.752,183.709 665.919,178.542 658,173.5C 657.365,172.034 656.531,170.7 655.5,169.5C 663.769,164.867 672.102,160.534 680.5,156.5 Z"/></g>
<g><path style="opacity:0.973" fill="#fdfdfd" d="M 824.5,156.5 C 827.187,156.336 829.854,156.503 832.5,157C 848.318,164.993 864.152,172.826 880,180.5C 880.346,182.218 880.846,183.885 881.5,185.5C 880.398,190.976 878.231,195.976 875,200.5C 869.333,207.5 863,213.833 856,219.5C 840.07,200.895 821.737,185.228 801,172.5C 799.759,171.123 799.592,169.79 800.5,168.5C 808.313,163.927 816.313,159.927 824.5,156.5 Z"/></g>
<g><path style="opacity:0.972" fill="#fdfdfd" d="M 394.5,156.5 C 398.586,156.884 402.586,157.717 406.5,159C 419.935,167.634 434.102,174.801 449,180.5C 447.153,198.191 438.319,211.191 422.5,219.5C 420.254,215.341 417.754,211.341 415,207.5C 399.128,194.15 382.628,181.65 365.5,170C 375.268,165.446 384.934,160.946 394.5,156.5 Z"/></g>
<g><path style="opacity:0.992" fill="#fefefe" d="M 162.5,196.5 C 164.167,196.5 165.833,196.5 167.5,196.5C 178.381,231.878 202.048,253.044 238.5,260C 269.91,262.421 296.744,252.588 319,230.5C 326.748,221.007 332.415,210.341 336,198.5C 336.519,197.484 337.353,196.818 338.5,196.5C 351.68,200.42 363.346,206.92 373.5,216C 390.641,231.459 405.141,248.959 417,268.5C 425.274,286.596 429.94,305.596 431,325.5C 431.619,341.165 432.119,356.832 432.5,372.5C 420.167,372.5 407.833,372.5 395.5,372.5C 395.5,354.5 395.5,336.5 395.5,318.5C 383.833,318.5 372.167,318.5 360.5,318.5C 360.5,390.167 360.5,461.833 360.5,533.5C 288.167,533.5 215.833,533.5 143.5,533.5C 143.5,461.833 143.5,390.167 143.5,318.5C 131.833,318.5 120.167,318.5 108.5,318.5C 108.5,336.5 108.5,354.5 108.5,372.5C 96.1667,372.5 83.8333,372.5 71.5,372.5C 62.9767,303.428 86.31,248.261 141.5,207C 148.313,202.927 155.313,199.427 162.5,196.5 Z"/></g>
<g><path style="opacity:0.99" fill="#fefefe" d="M 480.5,196.5 C 488.834,197.999 496.501,201.166 503.5,206C 549.335,237.139 573.835,280.639 577,336.5C 577.667,347.5 577.667,358.5 577,369.5C 575.829,370.893 574.329,371.727 572.5,372C 561.172,372.5 549.838,372.667 538.5,372.5C 538.5,354.5 538.5,336.5 538.5,318.5C 526.833,318.5 515.167,318.5 503.5,318.5C 503.5,390.167 503.5,461.833 503.5,533.5C 467.5,533.5 431.5,533.5 395.5,533.5C 395.5,490.5 395.5,447.5 395.5,404.5C 412.163,405.258 428.829,405.425 445.5,405C 456.201,406.082 463.034,401.582 466,391.5C 467.948,363.44 467.282,335.44 464,307.5C 462.922,301.443 461.589,295.443 460,289.5C 455.128,275.717 449.961,262.05 444.5,248.5C 449.517,242.649 455.017,237.316 461,232.5C 470.892,222.385 477.392,210.385 480.5,196.5 Z"/></g>
<g><path style="opacity:0.986" fill="#fefefe" d="M 623.5,196.5 C 632.506,198.335 640.839,201.835 648.5,207C 694.078,238.299 718.245,281.799 721,337.5C 721.667,348.167 721.667,358.833 721,369.5C 719.829,370.893 718.329,371.727 716.5,372C 706.5,372.667 696.5,372.667 686.5,372C 682.367,367.15 680.701,361.483 681.5,355C 682.297,342.846 682.631,330.679 682.5,318.5C 671.5,318.5 660.5,318.5 649.5,318.5C 649.667,389.501 649.5,460.501 649,531.5C 648.5,532 648,532.5 647.5,533C 611.168,533.5 574.835,533.667 538.5,533.5C 538.5,490.5 538.5,447.5 538.5,404.5C 555.821,405.527 573.154,405.693 590.5,405C 598.349,404.845 604.516,401.679 609,395.5C 610.135,384.068 610.635,372.568 610.5,361C 612.589,321.614 605.256,284.114 588.5,248.5C 588.667,247.833 588.833,247.167 589,246.5C 603.701,235.8 614.701,222.133 622,205.5C 623.149,202.607 623.649,199.607 623.5,196.5 Z"/></g>
<g><path style="opacity:0.986" fill="#fefefe" d="M 767.5,196.5 C 775.341,197.917 782.674,200.75 789.5,205C 847.492,244.889 872.325,300.055 864,370.5C 862.601,371.227 861.101,371.727 859.5,372C 849.833,372.667 840.167,372.667 830.5,372C 827.617,370.411 826.117,367.911 826,364.5C 825.522,349.161 825.689,333.828 826.5,318.5C 815.5,318.5 804.5,318.5 793.5,318.5C 793.667,389.167 793.5,459.834 793,530.5C 792.692,531.308 792.192,531.975 791.5,532.5C 756.208,533.66 720.875,533.826 685.5,533C 684.692,532.692 684.025,532.192 683.5,531.5C 682.506,489.209 682.172,446.876 682.5,404.5C 699.821,405.527 717.154,405.693 734.5,405C 742.567,404.72 748.734,401.22 753,394.5C 755.083,366.164 754.75,337.831 752,309.5C 750.558,299.288 748.224,289.288 745,279.5C 740.353,268.375 735.853,257.208 731.5,246C 750.5,234.465 762.5,217.965 767.5,196.5 Z"/></g>
<g><path style="opacity:0.985" fill="#fefefe" d="M 913.5,196.5 C 919.543,197.572 925.21,199.738 930.5,203C 990.42,242.354 1016.25,297.854 1008,369.5C 1006.83,370.893 1005.33,371.727 1003.5,372C 993.833,372.667 984.167,372.667 974.5,372C 973.069,371.535 971.903,370.701 971,369.5C 969.558,352.556 969.058,335.556 969.5,318.5C 958.833,318.5 948.167,318.5 937.5,318.5C 937.667,388.501 937.5,458.501 937,528.5C 936.727,530.329 935.893,531.829 934.5,533C 899.167,533.667 863.833,533.667 828.5,533C 828,532.5 827.5,532 827,531.5C 826.5,489.168 826.333,446.835 826.5,404.5C 843.821,405.527 861.154,405.693 878.5,405C 887.061,404.812 893.228,400.979 897,393.5C 899.151,366.146 898.818,338.813 896,311.5C 892.08,288.907 885.247,267.241 875.5,246.5C 893.952,234.277 906.619,217.61 913.5,196.5 Z"/></g>
<g><path style="opacity:0.988" fill="#fefefe" d="M 1080.5,620.5 C 1080.5,644.5 1080.5,668.5 1080.5,692.5C 1079.69,693.469 1078.69,694.302 1077.5,695C 988.834,695.5 900.167,695.667 811.5,695.5C 811.667,715.836 811.5,736.169 811,756.5C 806.629,754.731 802.462,752.564 798.5,750C 794.167,749.333 789.833,749.333 785.5,750C 781.314,752.201 777.147,754.367 773,756.5C 772.5,736.169 772.333,715.836 772.5,695.5C 743.5,695.5 714.5,695.5 685.5,695.5C 685.667,715.836 685.5,736.169 685,756.5C 679.175,753.167 673.009,750.834 666.5,749.5C 659.401,750.144 652.901,752.478 647,756.5C 646.5,736.169 646.333,715.836 646.5,695.5C 617.5,695.5 588.5,695.5 559.5,695.5C 559.667,715.836 559.5,736.169 559,756.5C 553.013,753.423 546.847,750.757 540.5,748.5C 533.71,750.479 527.21,753.146 521,756.5C 520.5,736.169 520.333,715.836 520.5,695.5C 491.167,695.5 461.833,695.5 432.5,695.5C 432.5,715.5 432.5,735.5 432.5,755.5C 426.383,752.196 419.883,749.862 413,748.5C 406.872,750.208 401.205,752.875 396,756.5C 395.5,736.169 395.333,715.836 395.5,695.5C 365.833,695.5 336.167,695.5 306.5,695.5C 306.667,715.836 306.5,736.169 306,756.5C 300.246,752.873 294.08,750.206 287.5,748.5C 281.363,750.485 275.53,753.151 270,756.5C 269.5,736.169 269.333,715.836 269.5,695.5C 179.833,695.5 90.1667,695.5 0.5,695.5C 0.5,670.5 0.5,645.5 0.5,620.5C 360.5,620.5 720.5,620.5 1080.5,620.5 Z"/></g>
<g><path style="opacity:0.979" fill="#fdfdfd" d="M 284.5,787.5 C 289.702,786.756 294.369,787.923 298.5,791C 310.167,799.333 321.833,807.667 333.5,816C 334.861,817.584 335.528,819.418 335.5,821.5C 303.833,821.5 272.167,821.5 240.5,821.5C 240.738,817.862 242.404,815.029 245.5,813C 258.156,803.82 271.156,795.32 284.5,787.5 Z"/></g>
<g><path style="opacity:0.955" fill="#fcfcfc" d="M 412.5,786.5 C 415.253,787.022 417.92,787.856 420.5,789C 431.996,796.915 443.662,804.582 455.5,812C 458.361,814.219 460.361,817.053 461.5,820.5C 444.843,821.666 428.177,821.833 411.5,821C 399.934,820.55 390.601,815.884 383.5,807C 392.515,799.137 402.181,792.304 412.5,786.5 Z"/></g>
<g><path style="opacity:0.955" fill="#fdfdfd" d="M 538.5,786.5 C 540.482,786.995 542.482,787.495 544.5,788C 555.5,795 566.5,802 577.5,809C 581.947,812.257 584.947,816.424 586.5,821.5C 570.163,821.667 553.83,821.5 537.5,821C 526.377,821.02 517.21,816.853 510,808.5C 509.333,807.833 509.333,807.167 510,806.5C 518.871,798.773 528.371,792.106 538.5,786.5 Z"/></g>
<g><path style="opacity:0.954" fill="#fdfdfd" d="M 664.5,786.5 C 667.673,787.17 670.673,788.336 673.5,790C 682.5,795.667 691.5,801.333 700.5,807C 706.223,810.543 710.223,815.376 712.5,821.5C 696.163,821.667 679.83,821.5 663.5,821C 652.377,821.02 643.21,816.853 636,808.5C 635.333,807.833 635.333,807.167 636,806.5C 644.638,798.446 654.138,791.779 664.5,786.5 Z"/></g>
<g><path style="opacity:0.96" fill="#fcfcfc" d="M 787.5,787.5 C 792.182,787.338 796.515,788.505 800.5,791C 811.672,798.085 822.672,805.419 833.5,813C 836.017,815.349 838.35,817.849 840.5,820.5C 822.843,821.666 805.176,821.833 787.5,821C 784.086,820.703 780.753,820.036 777.5,819C 773.118,815.14 768.118,812.307 762.5,810.5C 760.169,805.375 761.836,802.542 767.5,802C 773.81,796.5 780.477,791.667 787.5,787.5 Z"/></g>
<g><path style="opacity:0.994" fill="#fefefe" d="M 179.5,853.5 C 251.833,853.5 324.167,853.5 396.5,853.5C 396.5,925.833 396.5,998.167 396.5,1070.5C 382.829,1070.67 369.163,1070.5 355.5,1070C 353.671,1069.73 352.171,1068.89 351,1067.5C 334.333,1029.5 317.667,991.5 301,953.5C 293.297,946.09 284.797,944.923 275.5,950C 273.959,951.579 272.792,953.413 272,955.5C 261.507,992.472 251.174,1029.47 241,1066.5C 239.681,1068.49 237.848,1069.65 235.5,1070C 231.031,1070.78 226.531,1071.28 222,1071.5C 207.848,1070.62 193.681,1070.29 179.5,1070.5C 179.5,998.167 179.5,925.833 179.5,853.5 Z"/></g>
<g><path style="opacity:0.995" fill="#fefefe" d="M 431.5,853.5 C 461.5,853.5 491.5,853.5 521.5,853.5C 521.5,925.833 521.5,998.167 521.5,1070.5C 507.829,1070.67 494.163,1070.5 480.5,1070C 478.714,1069.22 477.214,1068.05 476,1066.5C 464.942,1040.05 453.609,1013.72 442,987.5C 438.071,978.047 434.738,968.38 432,958.5C 431.5,923.502 431.333,888.502 431.5,853.5 Z"/></g>
<g><path style="opacity:0.989" fill="#fefefe" d="M 556.5,853.5 C 587.5,853.5 618.5,853.5 649.5,853.5C 649.5,925.833 649.5,998.167 649.5,1070.5C 635.163,1070.67 620.829,1070.5 606.5,1070C 604.714,1069.22 603.214,1068.05 602,1066.5C 589.218,1034.94 575.884,1003.6 562,972.5C 560.026,967.272 558.359,961.938 557,956.5C 556.5,922.168 556.333,887.835 556.5,853.5 Z"/></g>
<g><path style="opacity:0.988" fill="#fefefe" d="M 682.5,853.5 C 713.5,853.5 744.5,853.5 775.5,853.5C 775.5,925.833 775.5,998.167 775.5,1070.5C 760.152,1070.83 744.819,1070.5 729.5,1069.5C 717.217,1039.6 704.384,1009.93 691,980.5C 687.738,973.048 685.071,965.381 683,957.5C 682.5,922.835 682.333,888.168 682.5,853.5 Z"/></g>
<g><path style="opacity:0.986" fill="#fefefe" d="M 808.5,853.5 C 839.5,853.5 870.5,853.5 901.5,853.5C 901.5,925.833 901.5,998.167 901.5,1070.5C 885.922,1070.82 870.422,1070.49 855,1069.5C 839.081,1032.74 823.748,995.743 809,958.5C 808.5,923.502 808.333,888.502 808.5,853.5 Z"/></g>
</svg>
