<?xml version="1.0" encoding="UTF-8"?>
<!DOCTYPE svg PUBLIC "-//W3C//DTD SVG 1.1//EN" "http://www.w3.org/Graphics/SVG/1.1/DTD/svg11.dtd">
<svg xmlns="http://www.w3.org/2000/svg" version="1.1" width="1081px" height="1081px" style="shape-rendering:geometricPrecision; text-rendering:geometricPrecision; image-rendering:optimizeQuality; fill-rule:evenodd; clip-rule:evenodd" xmlns:xlink="http://www.w3.org/1999/xlink">
<g><path style="opacity:0.994" fill="#fefefe" d="M 56.5,-0.5 C 378.833,-0.5 701.167,-0.5 1023.5,-0.5C 1030.23,1.04993 1035.06,5.04993 1038,11.5C 1038.67,71.1667 1038.67,130.833 1038,190.5C 1032.02,197.907 1024.18,201.741 1014.5,202C 697.167,202.667 379.833,202.667 62.5,202C 51.2757,202.407 43.4424,197.574 39,187.5C 38.3333,129.833 38.3333,72.1667 39,14.5C 41.6795,5.64325 47.5128,0.643246 56.5,-0.5 Z M 80.5,41.5 C 119.833,41.5 159.167,41.5 198.5,41.5C 198.5,80.8333 198.5,120.167 198.5,159.5C 159.167,159.5 119.833,159.5 80.5,159.5C 80.5,120.167 80.5,80.8333 80.5,41.5 Z M 240.5,41.5 C 279.833,41.5 319.167,41.5 358.5,41.5C 358.5,80.8333 358.5,120.167 358.5,159.5C 319.167,159.5 279.833,159.5 240.5,159.5C 240.5,120.167 240.5,80.8333 240.5,41.5 Z M 400.5,41.5 C 439.833,41.5 479.167,41.5 518.5,41.5C 518.5,80.8333 518.5,120.167 518.5,159.5C 479.167,159.5 439.833,159.5 400.5,159.5C 400.5,120.167 400.5,80.8333 400.5,41.5 Z M 560.5,41.5 C 599.833,41.5 639.167,41.5 678.5,41.5C 678.5,80.8333 678.5,120.167 678.5,159.5C 639.167,159.5 599.833,159.5 560.5,159.5C 560.5,120.167 560.5,80.8333 560.5,41.5 Z M 720.5,41.5 C 759.167,41.5 797.833,41.5 836.5,41.5C 836.5,80.8333 836.5,120.167 836.5,159.5C 797.833,159.5 759.167,159.5 720.5,159.5C 720.5,120.167 720.5,80.8333 720.5,41.5 Z M 881.5,41.5 C 919.833,41.5 958.167,41.5 996.5,41.5C 996.5,80.8333 996.5,120.167 996.5,159.5C 958.167,159.5 919.833,159.5 881.5,159.5C 881.5,120.167 881.5,80.8333 881.5,41.5 Z"/></g>
<g><path style="opacity:0.984" fill="#fefefe" d="M 1080.5,782.5 C 1080.5,861.167 1080.5,939.833 1080.5,1018.5C 1080.39,1029.22 1075.39,1036.72 1065.5,1041C 1004.17,1041.5 942.834,1041.67 881.5,1041.5C 881.213,1050.96 880.046,1060.29 878,1069.5C 875.563,1074.77 871.729,1078.44 866.5,1080.5C 861.833,1080.5 857.167,1080.5 852.5,1080.5C 844.334,1077.82 839.5,1072.16 838,1063.5C 836.964,1056.2 836.464,1048.87 836.5,1041.5C 637.833,1041.5 439.167,1041.5 240.5,1041.5C 240.827,1050.94 239.993,1060.28 238,1069.5C 236.373,1074.62 233.207,1078.28 228.5,1080.5C 223.5,1080.5 218.5,1080.5 213.5,1080.5C 207.163,1079.74 202.663,1076.41 200,1070.5C 198.58,1060.91 198.08,1051.25 198.5,1041.5C 136.832,1041.67 75.1658,1041.5 13.5,1041C 6.71998,1039.05 2.05332,1034.88 -0.5,1028.5C -0.5,942.833 -0.5,857.167 -0.5,771.5C 2.07189,766.693 6.07189,763.526 11.5,762C 20.3895,760.041 29.3895,759.207 38.5,759.5C 38.3333,657.499 38.5,555.499 39,453.5C 41.6705,446.165 46.8372,441.665 54.5,440C 111.167,439.333 167.833,439.333 224.5,440C 232,442.167 236.833,447 239,454.5C 240.491,556.123 240.991,657.79 240.5,759.5C 309.167,759.667 377.834,759.5 446.5,759C 436.745,748.137 436.078,736.803 444.5,725C 450.054,721.778 456.054,720.111 462.5,720C 481.171,719.537 499.838,719.704 518.5,720.5C 518.5,707.833 518.5,695.167 518.5,682.5C 457.499,682.667 396.499,682.5 335.5,682C 311.723,679.212 294.223,667.379 283,646.5C 281.198,641.625 279.865,636.625 279,631.5C 278.333,543.833 278.333,456.167 279,368.5C 285.387,343.779 300.887,327.946 325.5,321C 467.5,320.333 609.5,320.333 751.5,321C 767.583,323.785 780.083,331.952 789,345.5C 797.315,360.406 801.315,376.406 801,393.5C 801.667,466.833 801.667,540.167 801,613.5C 800.805,653.016 781.305,675.85 742.5,682C 681.834,682.5 621.168,682.667 560.5,682.5C 560.5,695.167 560.5,707.833 560.5,720.5C 581.503,720.333 602.503,720.5 623.5,721C 638.928,725.688 643.761,735.521 638,750.5C 635.872,753.63 633.372,756.463 630.5,759C 699.166,759.5 767.833,759.667 836.5,759.5C 837.154,662.182 837.32,564.849 837,467.5C 836.822,457.683 840.322,449.516 847.5,443C 850.089,441.803 852.756,440.803 855.5,440C 910.833,439.333 966.167,439.333 1021.5,440C 1028.92,441.277 1034.42,445.11 1038,451.5C 1038.5,554.166 1038.67,656.833 1038.5,759.5C 1049.43,758.646 1060.09,759.812 1070.5,763C 1077.17,767.882 1080.5,774.382 1080.5,782.5 Z M 333.5,362.5 C 470.5,362.333 607.5,362.5 744.5,363C 752.716,365.918 757.216,371.751 758,380.5C 758.667,460.833 758.667,541.167 758,621.5C 755.625,632.539 748.792,638.705 737.5,640C 605.167,640.667 472.833,640.667 340.5,640C 331.701,639.197 325.201,635.03 321,627.5C 320.333,543.833 320.333,460.167 321,376.5C 322.236,369.103 326.403,364.436 333.5,362.5 Z M 80.5,481.5 C 119.833,481.5 159.167,481.5 198.5,481.5C 198.5,574.167 198.5,666.833 198.5,759.5C 159.167,759.5 119.833,759.5 80.5,759.5C 80.5,666.833 80.5,574.167 80.5,481.5 Z M 881.5,481.5 C 919.833,481.5 958.167,481.5 996.5,481.5C 996.5,574.167 996.5,666.833 996.5,759.5C 958.167,759.5 919.833,759.5 881.5,759.5C 881.5,666.833 881.5,574.167 881.5,481.5 Z M 41.5,801.5 C 133.5,801.5 225.5,801.5 317.5,801.5C 317.5,867.5 317.5,933.5 317.5,999.5C 225.5,999.5 133.5,999.5 41.5,999.5C 41.5,933.5 41.5,867.5 41.5,801.5 Z M 359.5,801.5 C 478.833,801.5 598.167,801.5 717.5,801.5C 717.5,867.5 717.5,933.5 717.5,999.5C 598.167,999.5 478.833,999.5 359.5,999.5C 359.5,933.5 359.5,867.5 359.5,801.5 Z M 759.5,801.5 C 852.167,801.5 944.833,801.5 1037.5,801.5C 1037.5,867.5 1037.5,933.5 1037.5,999.5C 944.833,999.5 852.167,999.5 759.5,999.5C 759.5,933.5 759.5,867.5 759.5,801.5 Z"/></g>
<g><path style="opacity:0.968" fill="#fdfdfd" d="M 134.5,519.5 C 152.768,519.268 161.268,528.268 160,546.5C 156.346,556.294 149.179,561.294 138.5,561.5C 125.388,560.225 118.722,553.058 118.5,540C 118.814,529.192 124.148,522.359 134.5,519.5 Z"/></g>
<g><path style="opacity:0.97" fill="#fdfdfd" d="M 933.5,519.5 C 952.698,518.824 961.198,528.158 959,547.5C 955.507,557.1 948.507,561.767 938,561.5C 924.993,560.827 918.493,553.994 918.5,541C 918.715,530.378 923.715,523.211 933.5,519.5 Z"/></g>
<g><path style="opacity:0.983" fill="#fefefe" d="M 935.5,619.5 C 969.228,622.065 983.395,640.065 978,673.5C 973.094,689.042 962.594,698.208 946.5,701C 912.845,702.345 897.012,686.178 899,652.5C 903.79,633.204 915.957,622.204 935.5,619.5 Z"/></g>
<g><path style="opacity:0.985" fill="#fefefe" d="M 137.5,619.5 C 161.723,620.352 175.89,632.685 180,656.5C 180.441,679.129 169.941,693.962 148.5,701C 129.773,703.985 114.939,697.818 104,682.5C 94.559,665.326 95.7256,648.993 107.5,633.5C 116.039,625.55 126.039,620.883 137.5,619.5 Z"/></g>
</svg>
