<?xml version="1.0" encoding="UTF-8"?>
<!DOCTYPE svg PUBLIC "-//W3C//DTD SVG 1.1//EN" "http://www.w3.org/Graphics/SVG/1.1/DTD/svg11.dtd">
<svg xmlns="http://www.w3.org/2000/svg" version="1.1" width="1081px" height="1081px" style="shape-rendering:geometricPrecision; text-rendering:geometricPrecision; image-rendering:optimizeQuality; fill-rule:evenodd; clip-rule:evenodd" xmlns:xlink="http://www.w3.org/1999/xlink">
<g><path style="opacity:0.993" fill="#fefefe" d="M 336.5,122.5 C 377.481,120.041 408.315,136.374 429,171.5C 446.746,209.95 442.413,245.616 416,278.5C 381.481,311.536 342.648,317.702 299.5,297C 260.647,271.755 246.147,236.255 256,190.5C 265.452,160.049 284.952,138.882 314.5,127C 321.882,125.024 329.216,123.524 336.5,122.5 Z"/></g>
<g><path style="opacity:0.95" fill="#fefefe" d="M 815.5,129.5 C 824.167,129.5 832.833,129.5 841.5,129.5C 841.5,222.833 841.5,316.167 841.5,409.5C 832.833,409.5 824.167,409.5 815.5,409.5C 815.5,316.167 815.5,222.833 815.5,129.5 Z"/></g>
<g><path style="opacity:0.966" fill="#fefefe" d="M 1080.5,359.5 C 1080.5,366.167 1080.5,372.833 1080.5,379.5C 1080.19,388.681 1078.35,397.681 1075,406.5C 1058.91,440.351 1042.57,474.018 1026,507.5C 1025.12,510.789 1024.45,514.123 1024,517.5C 1023.5,530.829 1023.33,544.163 1023.5,557.5C 1025.83,557.5 1028.17,557.5 1030.5,557.5C 1030.5,577.833 1030.5,598.167 1030.5,618.5C 1015.5,618.667 1000.5,618.5 985.5,618C 983.939,617.682 982.772,616.849 982,615.5C 981.502,612.518 981.335,609.518 981.5,606.5C 994.5,606.5 1007.5,606.5 1020.5,606.5C 1020.5,593.5 1020.5,580.5 1020.5,567.5C 1007.5,567.5 994.5,567.5 981.5,567.5C 981.5,564.167 981.5,560.833 981.5,557.5C 986.167,557.5 990.833,557.5 995.5,557.5C 995.204,541.805 995.704,526.138 997,510.5C 997.798,507.107 998.798,503.774 1000,500.5C 1017.88,464.075 1035.21,427.409 1052,390.5C 1054.4,372.921 1055.07,355.254 1054,337.5C 1005.51,319.003 956.674,301.503 907.5,285C 898.506,284.5 889.506,284.334 880.5,284.5C 880.5,282.167 880.5,279.833 880.5,277.5C 879.167,277.5 877.833,277.5 876.5,277.5C 876.666,284.175 876.5,290.842 876,297.5C 873.303,300.87 869.803,302.204 865.5,301.5C 865.5,308.833 865.5,316.167 865.5,323.5C 858.833,323.5 852.167,323.5 845.5,323.5C 845.5,287.833 845.5,252.167 845.5,216.5C 852.167,216.5 858.833,216.5 865.5,216.5C 865.5,223.5 865.5,230.5 865.5,237.5C 869.064,237.688 872.397,238.688 875.5,240.5C 876.497,248.138 876.831,255.804 876.5,263.5C 877.833,263.5 879.167,263.5 880.5,263.5C 880.5,261.167 880.5,258.833 880.5,256.5C 892.2,256.268 903.866,256.768 915.5,258C 967.167,277 1018.83,296 1070.5,315C 1074.38,316.843 1077.21,319.676 1079,323.5C 1079.17,335.674 1079.67,347.674 1080.5,359.5 Z"/></g>
<g><path style="opacity:0.992" fill="#fefefe" d="M 259.5,311.5 C 272.464,311.101 284.464,314.267 295.5,321C 304.069,328.9 311.903,337.4 319,346.5C 345.195,379.061 371.028,411.894 396.5,445C 441.862,436.129 487.362,427.629 533,419.5C 537.308,419.619 541.475,420.452 545.5,422C 561.302,429.149 575.469,438.649 588,450.5C 596.107,464.989 594.773,478.656 584,491.5C 572.534,483.187 559.7,479.02 545.5,479C 499.659,478.205 453.826,478.372 408,479.5C 401.345,479.771 395.179,478.271 389.5,475C 354.203,435.368 318.536,396.034 282.5,357C 255.246,342.506 234.079,348.673 219,375.5C 214.434,392.679 217.767,408.013 229,421.5C 252.667,446.833 276.333,472.167 300,497.5C 300.667,498.833 301.333,500.167 302,501.5C 299.772,528.45 297.939,555.45 296.5,582.5C 343.835,582.333 391.168,582.5 438.5,583C 459.707,589.58 472.54,603.747 477,625.5C 484.449,716.675 491.949,807.842 499.5,899C 500.941,925.808 489.607,944.808 465.5,956C 430.067,964.839 406.9,952.006 396,917.5C 389.246,840.198 383.079,762.865 377.5,685.5C 324.166,685.667 270.832,685.5 217.5,685C 182.794,678.296 160.961,657.796 152,623.5C 141.936,575.051 140.936,526.384 149,477.5C 154.139,447.612 161.472,418.279 171,389.5C 179.238,361.622 195.405,339.789 219.5,324C 232.176,317.272 245.51,313.105 259.5,311.5 Z"/></g>
<g><path style="opacity:0.99" fill="#fefefe" d="M 257.5,355.5 C 265.649,356.826 272.982,359.992 279.5,365C 316.223,405.052 352.89,445.052 389.5,485C 446.803,486.017 504.136,487.017 561.5,488C 579.902,494.75 588.069,507.916 586,527.5C 582.164,543.002 572.331,551.836 556.5,554C 494.5,554.667 432.5,554.667 370.5,554C 361.223,551.947 353.39,547.447 347,540.5C 314.405,503.235 281.072,466.568 247,430.5C 240.618,423.12 234.618,415.453 229,407.5C 219.669,388.277 223.835,372.443 241.5,360C 246.653,357.392 251.987,355.892 257.5,355.5 Z"/></g>
<g><path style="opacity:0.981" fill="#fefefe" d="M -0.5,497.5 C -0.5,494.5 -0.5,491.5 -0.5,488.5C 3.14562,485.521 6.47896,482.188 9.5,478.5C 4.00764,458.545 1.00764,438.211 0.5,417.5C -0.0585637,406.562 2.1081,396.229 7,386.5C 10.0477,382.724 13.8811,380.058 18.5,378.5C 25.5504,384.054 31.3838,390.72 36,398.5C 70.2129,462.801 95.5462,530.467 112,601.5C 113.423,611.464 113.756,621.464 113,631.5C 108.303,633.867 103.47,634.034 98.5,632C 94.6002,630.435 90.9335,628.435 87.5,626C 79.6908,618.523 72.1908,610.689 65,602.5C 77.1488,638.947 90.4822,674.947 105,710.5C 117.908,706.846 131.074,704.68 144.5,704C 200.903,701.319 257.236,702.319 313.5,707C 322.86,708.147 332.193,709.48 341.5,711C 354.339,712.848 358.172,719.681 353,731.5C 345.103,739.052 335.937,744.552 325.5,748C 300.539,756.692 274.873,761.859 248.5,763.5C 248.5,765.833 248.5,768.167 248.5,770.5C 242.833,770.5 237.167,770.5 231.5,770.5C 231.333,798.169 231.5,825.835 232,853.5C 271.091,867.029 310.591,879.696 350.5,891.5C 351.329,896.802 351.829,902.136 352,907.5C 367.688,918.481 369.521,931.481 357.5,946.5C 347.238,953.916 336.571,954.416 325.5,948C 317.417,940.034 314.917,930.534 318,919.5C 320.259,915.405 323.093,911.738 326.5,908.5C 295.091,898.197 263.591,888.197 232,878.5C 231.333,888.167 231.333,897.833 232,907.5C 248.825,920.323 249.659,934.156 234.5,949C 223.024,954.545 212.357,953.379 202.5,945.5C 196.01,936.575 194.843,926.908 199,916.5C 202.53,913.586 205.53,910.252 208,906.5C 209.566,897.184 209.733,887.851 208.5,878.5C 176.93,888.634 145.263,898.468 113.5,908C 125.543,917.975 127.71,929.808 120,943.5C 111.833,952.33 102,954.83 90.5,951C 78.6238,944.738 74.1238,934.904 77,921.5C 77.4709,919.754 78.1376,918.087 79,916.5C 82.3702,913.465 85.3702,910.132 88,906.5C 89.3976,901.502 89.8976,896.502 89.5,891.5C 128.142,879.564 166.809,867.73 205.5,856C 206.333,855.167 207.167,854.333 208,853.5C 209.483,825.922 209.983,798.255 209.5,770.5C 203.5,770.5 197.5,770.5 191.5,770.5C 191.5,768.167 191.5,765.833 191.5,763.5C 166.99,761.693 142.99,757.193 119.5,750C 112.208,747.238 105.208,743.905 98.5,740C 94.3333,737.167 90.8333,733.667 88,729.5C 57.9776,652.252 28.4776,574.918 -0.5,497.5 Z"/></g>
<g><path style="opacity:0.975" fill="#fefefe" d="M 585.5,543.5 C 620.167,543.5 654.833,543.5 689.5,543.5C 689.5,549.5 689.5,555.5 689.5,561.5C 647.165,561.667 604.832,561.5 562.5,561C 568.325,558.255 573.992,555.255 579.5,552C 582.371,549.751 584.371,546.918 585.5,543.5 Z"/></g>
<g><path style="opacity:0.967" fill="#fefefe" d="M 486.5,571.5 C 662.5,571.5 838.5,571.5 1014.5,571.5C 1014.5,581.833 1014.5,592.167 1014.5,602.5C 838.5,602.5 662.5,602.5 486.5,602.5C 486.5,592.167 486.5,581.833 486.5,571.5 Z"/></g>
<g><path style="opacity:0.974" fill="#fefefe" d="M 534.5,606.5 C 677.834,606.333 821.167,606.5 964.5,607C 966.061,607.318 967.228,608.151 968,609.5C 968.667,614.167 968.667,618.833 968,623.5C 967.535,624.931 966.701,626.097 965.5,627C 913.182,630.518 860.848,633.851 808.5,637C 798.839,637.5 789.172,637.666 779.5,637.5C 781.394,692.551 782.394,747.885 782.5,803.5C 784.5,803.5 786.5,803.5 788.5,803.5C 788.5,843.5 788.5,883.5 788.5,923.5C 802.852,923.437 817.185,923.937 831.5,925C 875.768,929.021 920.102,932.021 964.5,934C 965.931,934.465 967.097,935.299 968,936.5C 968.667,941.5 968.667,946.5 968,951.5C 967.5,952.667 966.667,953.5 965.5,954C 821.834,954.5 678.167,954.667 534.5,954.5C 534.5,947.5 534.5,940.5 534.5,933.5C 579.248,932.071 623.914,929.237 668.5,925C 683.149,923.962 697.816,923.462 712.5,923.5C 712.5,883.5 712.5,843.5 712.5,803.5C 714.5,803.5 716.5,803.5 718.5,803.5C 718.5,773.167 718.5,742.833 718.5,712.5C 720.167,712.5 721.833,712.5 723.5,712.5C 723.5,687.5 723.5,662.5 723.5,637.5C 675.734,636.469 628.068,633.636 580.5,629C 565.183,627.97 549.849,627.47 534.5,627.5C 534.5,620.5 534.5,613.5 534.5,606.5 Z"/></g>
</svg>
