<?xml version="1.0" encoding="UTF-8"?>
<!DOCTYPE svg PUBLIC "-//W3C//DTD SVG 1.1//EN" "http://www.w3.org/Graphics/SVG/1.1/DTD/svg11.dtd">
<svg xmlns="http://www.w3.org/2000/svg" version="1.1" width="1081px" height="1081px" style="shape-rendering:geometricPrecision; text-rendering:geometricPrecision; image-rendering:optimizeQuality; fill-rule:evenodd; clip-rule:evenodd" xmlns:xlink="http://www.w3.org/1999/xlink">
<g><path style="opacity:0.098" fill="#f4f4f4" d="M 170.5,-0.5 C 416.5,-0.5 662.5,-0.5 908.5,-0.5C 908.5,-0.166667 908.5,0.166667 908.5,0.5C 662.833,0.5 417.167,0.5 171.5,0.5C 171.5,360.5 171.5,720.5 171.5,1080.5C 171.167,1080.5 170.833,1080.5 170.5,1080.5C 170.5,720.167 170.5,359.833 170.5,-0.5 Z"/></g>
<g><path style="opacity:0.996" fill="#fefefe" d="M 908.5,0.5 C 908.5,360.5 908.5,720.5 908.5,1080.5C 889.167,1080.5 869.833,1080.5 850.5,1080.5C 850.5,1034.17 850.5,987.833 850.5,941.5C 841.5,941.5 832.5,941.5 823.5,941.5C 823.5,987.833 823.5,1034.17 823.5,1080.5C 820.5,1080.5 817.5,1080.5 814.5,1080.5C 699.348,1061.81 584.015,1043.48 468.5,1025.5C 468.5,730.833 468.5,436.167 468.5,141.5C 586.852,122.608 705.186,103.608 823.5,84.5C 823.5,131.833 823.5,179.167 823.5,226.5C 832.5,226.5 841.5,226.5 850.5,226.5C 850.5,170.167 850.5,113.833 850.5,57.5C 643.5,57.5 436.5,57.5 229.5,57.5C 229.5,398.5 229.5,739.5 229.5,1080.5C 210.167,1080.5 190.833,1080.5 171.5,1080.5C 171.5,720.5 171.5,360.5 171.5,0.5C 417.167,0.5 662.833,0.5 908.5,0.5 Z M 823.5,284.5 C 833.167,284.5 842.833,284.5 852.5,284.5C 852.5,483.5 852.5,682.5 852.5,881.5C 842.833,881.5 833.167,881.5 823.5,881.5C 823.5,682.5 823.5,483.5 823.5,284.5 Z M 516.5,499.5 C 528.888,498.612 537.388,503.945 542,515.5C 546.098,528.521 543.265,539.688 533.5,549C 531.532,550.544 529.365,551.711 527,552.5C 526.333,572.833 526.333,593.167 527,613.5C 540.519,620.332 545.852,631.332 543,646.5C 537.689,664.24 526.523,669.74 509.5,663C 497.552,651.52 495.386,638.353 503,623.5C 505.996,618.996 509.996,615.663 515,613.5C 515.667,593.167 515.667,572.833 515,552.5C 502.255,545.677 496.922,535.01 499,520.5C 501.108,510.239 506.941,503.239 516.5,499.5 Z"/></g>
</svg>
